<svg xmlns="http://www.w3.org/2000/svg" viewBox="0 0 585 585" width="585" height="585">
	<defs>
		<linearGradient id="grd1" gradientUnits="userSpaceOnUse"  x1="292.954" y1="584.34" x2="292.954" y2="0.001">
			<stop offset="0" stop-color="#25cf43"  />
			<stop offset="1" stop-color="#61fd7d"  />
		</linearGradient>
	</defs>
	<style>
		tspan { white-space:pre }
		.shp0 { fill: url(#grd1) } 
		.shp1 { fill: #ffffff } 
	</style>
	<g id="WhatsApp Logo Icon">
		<path id="Icon" class="shp0" d="M149.35 0C146.16 0 139.22 0.1 133.85 0.29C120.81 0.75 104 1.77 96.36 3.31C84.7 5.67 73.69 9.24 64.53 13.91C53.77 19.4 44.13 26.4 35.8 34.71C27.45 43.04 20.43 52.7 14.92 63.48C10.27 72.59 6.7 83.54 4.34 95.14C2.76 102.86 1.72 119.79 1.25 132.92C1.06 138.29 0.96 145.23 0.96 148.44L0.93 357.27L0.93 438.89C0.96 442.47 1.05 447.7 1.2 451.95C1.67 465 2.69 481.81 4.23 489.45C6.58 501.11 10.16 512.13 14.82 521.29C20.31 532.06 27.3 541.7 35.62 550.03C43.95 558.38 53.6 565.4 64.38 570.91C73.48 575.57 84.43 579.14 96.02 581.5C102.59 582.84 115.84 583.8 127.74 584.34L459.22 584.34C470.73 583.8 483.25 582.88 489.55 581.61C501.21 579.26 512.22 575.68 521.38 571.02C532.14 565.53 541.78 558.53 550.11 550.21C558.45 541.88 565.48 532.23 570.98 521.45C575.64 512.33 579.21 501.39 581.57 489.79C583.14 482.07 584.18 465.13 584.65 452C584.85 446.64 584.94 439.69 584.94 436.49L584.98 228.37L584.98 146.01C584.95 142.44 584.85 137.21 584.7 132.97C584.24 119.93 583.22 103.12 581.68 95.47C579.32 83.81 575.75 72.8 571.08 63.63C565.6 52.87 558.6 43.22 550.29 34.9C541.96 26.55 532.31 19.52 521.53 14.01C512.42 9.36 501.48 5.79 489.88 3.42C482.17 1.85 465.23 0.81 452.11 0.34C446.75 0.15 439.8 0.05 436.6 0.05L149.35 0" />
		<path id="WA Logo" class="shp1" d="M89.89 499.49L119.38 391.77C101.19 360.25 91.62 324.49 91.64 287.85C91.68 173.24 184.93 79.99 299.51 79.99C355.12 80.02 407.31 101.67 446.56 140.96C485.8 180.25 507.4 232.47 507.38 288.02C507.34 402.63 414.08 495.89 299.51 495.89C299.51 495.89 299.52 495.89 299.51 495.89L299.43 495.89C264.64 495.87 230.45 487.14 200.09 470.58L89.89 499.49ZM205.2 432.95L211.5 436.7C238.03 452.44 268.44 460.77 299.44 460.78L299.51 460.78C394.74 460.78 472.25 383.27 472.29 288C472.3 241.84 454.35 198.43 421.73 165.77C389.11 133.11 345.73 115.12 299.58 115.1C204.28 115.1 126.77 192.6 126.73 287.86C126.72 320.51 135.86 352.3 153.15 379.81L157.26 386.35L139.8 450.11L205.2 432.95ZM404.24 337.45C402.94 335.28 399.48 333.98 394.28 331.38C389.09 328.78 363.55 316.22 358.79 314.48C354.03 312.75 350.57 311.88 347.1 317.08C343.64 322.28 333.69 333.98 330.66 337.45C327.63 340.91 324.6 341.35 319.41 338.75C314.21 336.15 297.48 330.66 277.64 312.97C262.2 299.19 251.77 282.19 248.74 276.99C245.71 271.79 248.42 268.97 251.02 266.39C253.36 264.06 256.21 260.32 258.81 257.29C261.41 254.25 262.27 252.09 264 248.62C265.74 245.15 264.87 242.12 263.57 239.52C262.27 236.92 251.89 211.35 247.56 200.96C243.34 190.83 239.06 192.2 235.87 192.04C232.85 191.89 229.38 191.86 225.92 191.86C222.45 191.86 216.83 193.16 212.07 198.36C207.31 203.55 193.89 216.12 193.89 241.69C193.89 267.25 212.5 291.95 215.1 295.42C217.69 298.88 251.72 351.34 303.82 373.84C316.22 379.2 325.89 382.39 333.43 384.78C345.88 388.74 357.2 388.18 366.15 386.84C376.13 385.35 396.88 374.28 401.21 362.15C405.53 350.01 405.53 339.61 404.24 337.45Z" />
	</g>
</svg>